<?xml version='1.0' encoding='utf-8'?>
<svg xmlns="http://www.w3.org/2000/svg" width="100%" height="100%" version="1.1" style="shape-rendering:geometricPrecision; text-rendering:geometricPrecision; image-rendering:optimizeQuality; fill-rule:evenodd; clip-rule:evenodd" viewBox="0 0 9144 9144"> <defs> <style type="text/css">  .fil0 {fill:white} .fil1 {fill:#FF5A5E;fill-rule:nonzero}  </style> </defs> <g id="Camada_x0020_1"> <metadata id="CorelCorpID_0Corel-Layer"/> <polygon class="fil0" points="0,0 9144,0 9144,9144 0,9144 "/> <path class="fil1" d="M5760 6022c108,-71 178,-171 205,-286 27,-118 11,-254 -54,-395 -95,-208 -197,-426 -309,-662 -109,-232 -226,-475 -355,-740 -77,-159 -143,-291 -205,-412 -63,-120 -119,-221 -176,-319 -3,-6 -6,-10 -9,-15l0 0c-52,-81 -125,-133 -205,-153 -79,-20 -165,-8 -243,38l-13 8c-34,21 -63,49 -92,86 -30,39 -61,91 -94,157l-154 309c-143,286 -241,483 -310,624 -80,162 -145,295 -217,444l-14 28c-84,175 -145,306 -196,420 -50,114 -88,208 -124,308 -42,118 -36,240 11,347 46,107 134,198 253,252 97,45 193,59 289,45 99,-14 202,-59 312,-135 69,-47 137,-107 205,-166 -107,-171 -185,-312 -238,-443 -62,-151 -93,-291 -102,-451 -7,-145 16,-276 72,-388 56,-110 143,-200 262,-264 127,-67 258,-94 385,-81 126,13 248,67 357,159 110,94 175,204 206,329 30,121 27,255 -1,402 -27,140 -67,280 -121,414 -45,114 -99,225 -162,331l10 9c17,16 36,34 56,52l17 16 4 4 13 11 0 0c32,29 61,53 83,70 21,18 38,30 48,36 112,66 217,101 316,102 98,2 194,-28 290,-91l0 0zm370 -249c-37,159 -132,295 -278,390l0 0 0 0c-125,82 -252,121 -384,119 -130,-2 -263,-44 -400,-125 -16,-10 -40,-27 -68,-50 -27,-21 -57,-47 -89,-76l0 0 -13 -12 -5 -4 -18 -16c-17,-16 -37,-34 -58,-53 -19,-18 -39,-38 -60,-58 -28,-27 -34,-71 -12,-105 71,-114 133,-236 183,-363 50,-126 88,-255 112,-383 23,-124 27,-235 3,-331 -22,-91 -71,-171 -152,-240 -82,-70 -172,-110 -265,-120 -94,-10 -191,11 -287,62 -88,46 -151,112 -191,191 -43,85 -60,188 -54,303 8,140 35,263 89,396 56,137 141,286 260,474 11,15 16,32 16,49l0 0c0,28 -13,53 -34,68l-38 33 -5 4c-71,63 -145,128 -226,184 -132,91 -258,145 -384,164 -129,19 -255,-1 -383,-59 -158,-73 -275,-195 -338,-339 -63,-145 -72,-311 -14,-471 38,-108 77,-205 127,-319 50,-112 113,-245 199,-425l14 -28c71,-148 136,-282 217,-446 92,-186 187,-376 311,-625l154 -308c37,-75 73,-136 112,-186 41,-53 84,-93 133,-124 5,-3 11,-7 19,-12 119,-69 250,-86 370,-56 121,30 230,107 306,226l0 0 0 0c5,7 9,14 12,20 63,107 120,211 181,327 60,116 126,250 207,416 129,267 247,511 356,742 107,226 209,444 310,664 80,176 100,349 65,502zm-1744 672c-190,130 -385,211 -583,235 -193,23 -388,-7 -583,-96 -254,-116 -443,-315 -544,-551 -101,-235 -116,-506 -22,-766 42,-117 84,-220 136,-340 52,-118 118,-257 207,-442l14 -29c72,-149 137,-283 218,-448 93,-187 187,-376 310,-623l156 -312 2 -5c52,-104 106,-192 167,-267 64,-79 135,-145 221,-200 9,-5 20,-12 33,-20 213,-124 451,-154 671,-100 218,54 418,191 552,402 6,9 13,20 21,34 66,112 126,221 189,342 62,120 131,258 214,429 130,267 247,513 357,745 108,227 211,447 312,669 122,266 148,541 86,787 -63,246 -214,463 -446,615 -190,124 -391,185 -595,185 -207,0 -415,-62 -618,-183 -94,-55 -190,-141 -274,-220 -64,56 -129,109 -201,159zm-602 67c170,-21 339,-91 506,-206 81,-56 155,-120 231,-186l10 -9c33,-30 83,-31 116,0l4 5c90,84 199,187 296,244 177,106 356,160 532,160 171,0 340,-52 503,-158 195,-127 321,-309 374,-515 53,-210 30,-445 -75,-675 -96,-210 -199,-429 -311,-667 -111,-233 -228,-478 -357,-744 -80,-163 -147,-299 -212,-424 -65,-124 -124,-231 -184,-335 -5,-7 -11,-17 -18,-28 -110,-172 -273,-285 -451,-329 -178,-44 -371,-19 -544,82 -7,4 -16,10 -27,17 -71,45 -129,98 -182,163 -53,65 -100,144 -147,237l-2 4 -155 312c-143,285 -241,482 -310,623 -80,162 -146,297 -218,447l-14 28c-87,181 -151,317 -204,438 -53,119 -93,220 -132,328 -79,218 -66,445 18,642 86,199 245,367 459,465 165,75 330,101 494,81zm865 -1640c-7,-168 -157,-145 -149,8 6,111 35,209 80,309 31,-72 73,-212 69,-317zm168 -77c9,52 5,116 -10,198 -14,73 -33,146 -57,219 -23,72 -50,143 -82,213 -7,17 -19,31 -36,41 -41,23 -93,9 -116,-32 -61,-108 -104,-200 -134,-285 -30,-89 -46,-172 -51,-260 -21,-388 438,-400 486,-94z"/> </g> </svg>