<svg id="Layer_1" data-name="Layer 1" xmlns="http://www.w3.org/2000/svg" viewBox="0 0 122.88 101.78"><title>cups</title><path d="M67.77,5.47A3.39,3.39,0,0,1,70.89,0a3.42,3.42,0,0,1,2.26,1.29c2.47,3.21,1.56,6.33.49,9.92l-.06.19a20.16,20.16,0,0,0-1,4.47,7,7,0,0,0,1.07,4.3l.07.13a3.37,3.37,0,0,1,.37,2.43,3.43,3.43,0,0,1-1.48,2.14l-.1.05a3.39,3.39,0,0,1-4.6-1.09h0c-3.51-5.53-2.08-10.32-.84-14.45h0a21.16,21.16,0,0,0,.74-2.88,1.6,1.6,0,0,0-.06-1ZM48.37,84.31a25.52,25.52,0,0,1-8,5.35,25.08,25.08,0,0,1-9.61,1.91H25.19a25.08,25.08,0,0,1-9.61-1.91A25.38,25.38,0,0,1,7.4,84.17l-.08-.07A25.36,25.36,0,0,1,1.92,76,25,25,0,0,1,0,66.36V46.1a2.75,2.75,0,0,1,.81-1.94h0a2.75,2.75,0,0,1,1.94-.81H35.34V33.87a3.41,3.41,0,0,1,3.41-3.41h62.43a3.4,3.4,0,0,1,3.4,3.41V44.1h.22a34.07,34.07,0,0,1,7.28.16,12.34,12.34,0,0,1,7,3.54,12.87,12.87,0,0,1,2.95,4.82,15.12,15.12,0,0,1,.78,5.83,17.36,17.36,0,0,1-.48,3.17,18.83,18.83,0,0,1-2.81,6.09,19.13,19.13,0,0,1-2.26,2.65,22,22,0,0,1-8.5,5.12,30.39,30.39,0,0,1-10,1.47c-.43.61-.88,1.2-1.34,1.76-.64.78-1.34,1.56-2.09,2.31h0a31.11,31.11,0,0,1-22,9.17H66.54a30.93,30.93,0,0,1-11.9-2.38,31.47,31.47,0,0,1-6.27-3.5Zm-7.87-41V59a26,26,0,0,0,7,17.7h0v0h.1v0h0l0,0h0v0h.11v0H48v0h0l0,0h0l0,0h0v0h0l.29.28h.05l0,0,0,0,0,0,0,0h0l0,0h0l0,0h0l0,0h0l0,0h0l0,0h0v0h.07l0,0h0l0,0h0l0,0,0,0h0l0,0h0l0,0h0l0,0h0l0,0h0l0,0h0l0,0h0l0,0h.06l0,0h0l0,0h0l0,0h0l0,0h0l0,0h0l0,0h0l0,0,0,0,0,0h0l0,0h0l0,0h0l0,0,0,0h0l0,0h0l0,0h0l0,0h0l0,0h0l0,0,0,0h0l0,0h0l0,0,0,0,0,0h0l0,0h0l0,0,0,0h0l.06,0,0,0h0l0,0,0,0,0,0h0l0,0,0,0,0,0,0,0,0,0h0l0,0,0,0,0,0,.08.07,0,0h0l0,0,.05,0,0,0,0,0,0,0,0,0,0,0h0l0,0,0,0,0,0,0,0,.06,0,0,0,0,0,0,0h0l0,0,0,0,0,0,0,0,.12.08,0,0h0l.2.15,0,0h0l0,0,0,0,.15.1,0,0h0l0,0,.15.1,0,0,0,0h0l0,0,0,0,0,0,.06,0,0,0,0,0A25.83,25.83,0,0,0,66.55,85h6.83A26.12,26.12,0,0,0,99.43,59h0V35.61H40.5v7.74Zm-5.16,5.5H5.5V66.36A19.54,19.54,0,0,0,7,73.87a20,20,0,0,0,10.7,10.7,19.54,19.54,0,0,0,7.51,1.49h5.52a19.52,19.52,0,0,0,7.5-1.49,20,20,0,0,0,6-3.88,31.49,31.49,0,0,1-6.48-9.82A31.13,31.13,0,0,1,35.34,59V48.85Zm68.44.45v9.09A27.6,27.6,0,0,1,101,70.46c5.92-.16,10.18-2.11,12.92-4.8a13.25,13.25,0,0,0,2.74-3.9,11.66,11.66,0,0,0,1-4.14,8.34,8.34,0,0,0-2.14-6.37c-2.37-2.41-6.14-2.22-9.8-2-.67,0-1.32.08-2,.1ZM82.31,5.47A3.34,3.34,0,0,1,81.63,3,3.37,3.37,0,0,1,82.92.71,3.34,3.34,0,0,1,85.42,0a3.37,3.37,0,0,1,2.26,1.29c2.47,3.21,1.57,6.33.49,9.92l0,.19a20.18,20.18,0,0,0-1,4.47,7,7,0,0,0,1.07,4.3l.07.13a3.4,3.4,0,0,1-1.11,4.57l-.09.05a3.4,3.4,0,0,1-4.61-1.09h0a13.45,13.45,0,0,1-2.17-7.91,26.23,26.23,0,0,1,1.33-6.53l0-.07c.55-1.83,1-3.41.67-3.87Zm-29.08,0A3.39,3.39,0,0,1,56.35,0a3.42,3.42,0,0,1,2.26,1.29c2.49,3.24,1.55,6.38.46,10a20.51,20.51,0,0,0-1,4.57,7,7,0,0,0,1.07,4.3l.07.13a3.37,3.37,0,0,1,.37,2.43,3.43,3.43,0,0,1-1.49,2.14L58,25a3.38,3.38,0,0,1-2.47.4,3.43,3.43,0,0,1-2.14-1.49h0a13.3,13.3,0,0,1-2.17-7.91,25.6,25.6,0,0,1,1.33-6.55,21.16,21.16,0,0,0,.74-2.88,1.6,1.6,0,0,0-.06-1ZM3.31,101.78a2.79,2.79,0,0,1-1.95-.8,2.76,2.76,0,0,1,0-3.89h0a2.73,2.73,0,0,1,1.94-.81H111.43a2.75,2.75,0,0,1,1.94.81h0a2.75,2.75,0,0,1-1.94,4.69ZM14.45,23.17a2.67,2.67,0,0,1-.55-2,2.74,2.74,0,0,1,4.88-1.33c2,2.61,1.26,5.15.39,8.07l0,.06a16.9,16.9,0,0,0-.79,3.64,5.68,5.68,0,0,0,.86,3.48l.06.1a2.7,2.7,0,0,1,.3,2,2.74,2.74,0,0,1-1.2,1.72h0A2.76,2.76,0,0,1,14.58,38h0a10.77,10.77,0,0,1-1.75-6.39,20.24,20.24,0,0,1,1.08-5.29A16.81,16.81,0,0,0,14.49,24a1.43,1.43,0,0,0,0-.85Zm11.74,0a2.67,2.67,0,0,1-.55-2,2.74,2.74,0,0,1,4.88-1.33c2,2.61,1.26,5.15.39,8.07l0,.06a16.34,16.34,0,0,0-.8,3.64A5.68,5.68,0,0,0,31,35.07l.06.11a2.66,2.66,0,0,1,.3,2,2.74,2.74,0,0,1-1.2,1.72l-.08,0A2.76,2.76,0,0,1,26.32,38h0c-2.84-4.47-1.68-8.34-.68-11.67h0A16.81,16.81,0,0,0,26.23,24a1.35,1.35,0,0,0,0-.85Z"/></svg>