<svg xmlns="http://www.w3.org/2000/svg" shape-rendering="geometricPrecision" text-rendering="geometricPrecision" image-rendering="optimizeQuality" fill-rule="evenodd" clip-rule="evenodd" viewBox="0 0 512 409.39"><path fill-rule="nonzero" d="M494.93 409.39H17.02v-.05c-3.19 0-6.4-.89-9.27-2.75-7.88-5.12-10.12-15.66-5-23.54L245.3 8.6c1.36-2.39 3.31-4.48 5.8-6.03 7.99-4.97 18.51-2.52 23.48 5.47l234.27 374.39c1.98 2.79 3.15 6.2 3.15 9.89 0 9.42-7.65 17.07-17.07 17.07z"/><path fill="#A0A0A0" d="m20.26 392.32 54.15-71.55 82.86-145.28 47.62-55.05 24.13-53.38 31.05-50.02v.01l.01-.01L494.9 392.32H20.26z"/><path fill="#333" d="M144.91 405.04h225.34L346.2 284.28c-.45-2.78-1.46-4.24-3.32-6.16l-64.28-66.28c-3.6-3.71-5.45-4.35-10.19-.88l-87.4 63.92c-2.65 1.94-3.47 2.56-4.59 5.71l-31.51 124.45z"/><path d="M144.91 405.04h197.82L321.5 298.39c-.45-2.78-1.46-4.24-3.32-6.15l-64.29-66.29c-1.01-1.04-1.88-1.84-2.73-2.38l-61.62 41.93c-2.65 1.93-12 11.94-13.12 15.09l-31.51 124.45z"/></svg>