<svg id="Layer_1" data-name="Layer 1" xmlns="http://www.w3.org/2000/svg" viewBox="0 0 101.03 122.88"><title>paint-brush-drawing</title><path d="M42.88,114.05a46.55,46.55,0,0,0,24-3.15,50.83,50.83,0,0,0,9.64-5.19l.64,7.09a56.6,56.6,0,0,1-7.9,4A52.93,52.93,0,0,1,42,120.31,45.8,45.8,0,0,1,15.85,107,55.59,55.59,0,0,1,1.16,79.54,53.4,53.4,0,0,1,6.91,42.23a54.45,54.45,0,0,1,29-24.57,26.55,26.55,0,0,1,12.52-1.74,13.51,13.51,0,0,1,9.4,5.42,3.17,3.17,0,0,1,.33.6c2.93,6.69-.63,10.88-4,14.9-2,2.31-3.84,4.52-2.74,6.64a5,5,0,0,0,3.29,2,20.15,20.15,0,0,0,8,.11c2.6-.42,5.29-1,7.85-1.53,1.86-.39,3.66-.77,5.39-1.09l-1.44,6.72c-.87.17-1.75.36-2.64.55-2.55.54-5.21,1.11-8.17,1.57a26.19,26.19,0,0,1-10.55-.23c-3.41-.89-6-2.66-7.29-5.21-3.07-5.89.14-9.68,3.5-13.64,2.08-2.46,4.26-5,3.2-8a7.45,7.45,0,0,0-5-2.61,20.63,20.63,0,0,0-9.53,1.42A48.13,48.13,0,0,0,12.43,45.32,47,47,0,0,0,7.34,78.23a49.17,49.17,0,0,0,13,24.36,39.44,39.44,0,0,0,22.55,11.46ZM41,101a9.16,9.16,0,1,0,5.25-11.83A9.16,9.16,0,0,0,41,101ZM90.11,0C89.4,11.14,74.8,18,80,29.59a13,13,0,0,0,7.73,6.93,8.55,8.55,0,0,0,4.17.22,8.63,8.63,0,0,0,1.84-.61c7.59-3.44,8.5-12.75,6.25-19.9C97.89,9.64,93.36,3.81,90.11,0Zm9.74,62.1a42.27,42.27,0,0,1-18.21.17l4.93,54.26c.25,3.37.9,5.69,5,6.35a5,5,0,0,0,3.36-1.45,5.47,5.47,0,0,0,1.3-3.55L99.85,62.1ZM94.92,41.2c-2.3.95-6.44,1.45-9.34,0L81.73,59.07c6.39,1.42,12.64,1.69,18.63,0-2.18-8.69-4-8.78-5.44-17.82ZM62.49,81a10.47,10.47,0,0,0,12.35,6.38L73,66.77A10.48,10.48,0,0,0,62.49,81Zm-45.61.86A9.16,9.16,0,1,0,22.13,70a9.15,9.15,0,0,0-5.25,11.84Zm5.37-27a9.09,9.09,0,1,0,5.22-11.75,9.1,9.1,0,0,0-5.22,11.75Z"/></svg>