<?xml version="1.0" encoding="utf-8"?><svg version="1.1" id="Layer_1" xmlns="http://www.w3.org/2000/svg" xmlns:xlink="http://www.w3.org/1999/xlink" x="0px" y="0px" viewBox="0 0 96.52 122.88" style="enable-background:new 0 0 96.52 122.88" xml:space="preserve"><style type="text/css">.st0{fill-rule:evenodd;clip-rule:evenodd;}</style><g><path class="st0" d="M65.09,20.23l-0.04,4.55c0.76-0.67,1.91-0.72,2.73-0.06c0.91,0.73,1.05,2.06,0.32,2.97l-2.52,3.11 c-0.17,0.21-0.37,0.38-0.59,0.51l-0.32,33.87c0.48-0.18,0.92-0.39,1.32-0.63c0.91-0.54,1.75-1.32,2.51-2.33 c1.82-2.42,2.8-4.83,3.32-7.4c-0.16-0.11-0.3-0.24-0.42-0.4l-2.52-3.11c-0.73-0.91-0.59-2.24,0.32-2.97 c0.91-0.73,2.24-0.59,2.97,0.32l0.2,0.25c0.02-1.33,0.01-2.71,0-4.17l-0.01-0.65c-0.37-0.12-0.7-0.35-0.97-0.68l-2.52-3.11 c-0.73-0.91-0.59-2.24,0.32-2.97c0.91-0.73,2.24-0.59,2.97,0.32l0.13,0.16v-1.91c0-5.73,4.65-10.38,10.38-10.38 c5.73,0,10.38,4.65,10.38,10.38v2.87c0.76-0.62,1.87-0.64,2.66-0.01c0.91,0.73,1.05,2.06,0.32,2.97l-2.52,3.11 c-0.14,0.17-0.3,0.32-0.47,0.43c0.02,1.55,0.03,3.04,0.01,4.5c0.76-0.62,1.87-0.65,2.66-0.01c0.91,0.73,1.05,2.06,0.32,2.97 l-2.52,3.11c-0.24,0.29-0.53,0.51-0.86,0.64c-0.71,5.9-2.63,11.59-7.62,18.21c-2.35,3.12-5.17,5.65-8.43,7.61 c-3.22,1.93-6.74,3.22-10.56,3.9c-0.53,0.09-1.06,0.14-1.59,0.15l-0.39,36.52H34.31l-0.24-17.91c-1.06,0.15-2.17,0.15-3.28-0.05 c-3.81-0.68-7.34-1.97-10.56-3.9c-3.26-1.95-6.08-4.48-8.43-7.61c-4.5-5.97-6.5-12.06-7.37-18.2c-0.55-0.05-1.07-0.32-1.44-0.78 l-2.52-3.11c-0.73-0.91-0.59-2.24,0.32-2.97c0.91-0.73,2.24-0.59,2.97,0.32l0.11,0.13c-0.07-1.59-0.09-3.18-0.09-4.77 c-0.3-0.13-0.57-0.34-0.79-0.61l-2.52-3.11c-0.73-0.91-0.59-2.24,0.32-2.97c0.91-0.73,2.24-0.59,2.97,0.32l0.02,0.02l0-1.13v-1.53 c-0.3-0.13-0.58-0.34-0.8-0.61L0.47,51.3c-0.73-0.91-0.59-2.24,0.32-2.97c0.91-0.73,2.24-0.59,2.97,0.32l0.02,0.02v-4.66 c-0.3-0.13-0.58-0.34-0.8-0.61l-2.52-3.11c-0.73-0.91-0.59-2.24,0.32-2.97c0.91-0.73,2.24-0.59,2.97,0.32l0.36,0.44 c1.17-4.46,5.22-7.74,10.04-7.74c4.77,0,8.8,3.22,10.01,7.61l0.25-0.31c0.73-0.91,2.06-1.05,2.97-0.32 c0.91,0.73,1.05,2.06,0.32,2.97L25.2,43.4c-0.19,0.23-0.41,0.41-0.66,0.54v4.57c0.75-0.78,1.99-0.88,2.85-0.18 c0.91,0.73,1.05,2.06,0.32,2.97l-2.52,3.11c-0.19,0.23-0.41,0.41-0.66,0.54v1.6l0,0.97c0.75-0.79,1.99-0.88,2.85-0.19 c0.91,0.73,1.05,2.06,0.32,2.97l-2.52,3.11c-0.21,0.26-0.46,0.45-0.74,0.58c0.01,1.51,0.04,3.01,0.14,4.47 c0.75-0.73,1.95-0.8,2.79-0.13c0.91,0.73,1.05,2.06,0.32,2.97l-2.33,2.89c0.57,2.49,1.5,4.76,2.96,6.72 c0.76,1.01,1.6,1.79,2.51,2.33c0.83,0.5,1.83,0.87,2.99,1.12l-0.58-53.06c-0.23-0.13-0.44-0.3-0.61-0.52l-2.52-3.11 c-0.73-0.91-0.59-2.24,0.32-2.97c0.82-0.66,1.97-0.61,2.73,0.07l-0.05-4.55c-0.18-0.12-0.35-0.27-0.49-0.44l-2.52-3.11 c-0.73-0.91-0.59-2.24,0.32-2.97c0.85-0.68,2.06-0.6,2.81,0.15c2.38-18.47,29.27-18.46,31.67,0.01c0.75-0.76,1.97-0.84,2.82-0.16 c0.91,0.73,1.05,2.06,0.32,2.97l-2.52,3.11C65.44,19.97,65.27,20.11,65.09,20.23L65.09,20.23z"/></g></svg>