<?xml version="1.0" encoding="utf-8"?><svg version="1.1" id="Layer_1" xmlns="http://www.w3.org/2000/svg" xmlns:xlink="http://www.w3.org/1999/xlink" x="0px" y="0px" viewBox="0 0 122.88 118.79" style="enable-background:new 0 0 122.88 118.79" xml:space="preserve"><g><path d="M83.47,33.56h30.23h4.57c0.03,0,0.07,0,0.11-0.01L100.8,5.56c-0.13-0.2-0.29-0.49-0.44-0.77l0,0l-0.04-0.08 c-0.09-0.18-0.15-0.36-0.18-0.55H22.7c-0.17,0,0,0.3-0.18,0.63c-0.14,0.25-0.28,0.5-0.45,0.77L4.5,33.55 c0.04,0.01,0.08,0.01,0.11,0.01h4.57H83.47L83.47,33.56z M45.46,50.83h31.97v17.12H45.46V50.83L45.46,50.83z M53.72,96.04 c0.89,0,1.61,0.72,1.61,1.61c0,0.89-0.72,1.61-1.61,1.61c-0.89,0-1.61-0.72-1.61-1.61C52.11,96.76,52.83,96.04,53.72,96.04 L53.72,96.04z M54.05,75.26h14.79c2.46,0,4.7,1.01,6.32,2.63s2.63,3.86,2.63,6.32v30.42h33.83V37.72H11.26v76.91h33.83V84.21 c0-2.46,1.01-4.7,2.63-6.32C49.34,76.27,51.58,75.26,54.05,75.26L54.05,75.26z M68.83,79.41H54.05c-1.32,0-2.52,0.54-3.39,1.41 c-0.87,0.87-1.41,2.07-1.41,3.39v30.42h24.38V84.21c0-1.32-0.54-2.52-1.41-3.39C71.35,79.95,70.15,79.41,68.83,79.41L68.83,79.41z M88.18,79.66h14.81c1.15,0,2.08,0.93,2.08,2.08v17.12c0,1.15-0.93,2.08-2.08,2.08H88.18c-1.15,0-2.08-0.93-2.08-2.08V81.74 C86.1,80.59,87.03,79.66,88.18,79.66L88.18,79.66z M100.91,83.82H90.26v12.96h10.66V83.82L100.91,83.82z M88.18,48.76h14.81 c1.15,0,2.08,0.93,2.08,2.08v17.12c0,1.15-0.93,2.08-2.08,2.08H88.18c-1.15,0-2.08-0.93-2.08-2.08V50.83 C86.1,49.69,87.03,48.76,88.18,48.76L88.18,48.76z M100.91,52.91H90.26v12.96h10.66V52.91L100.91,52.91z M19.89,79.66H34.7 c1.15,0,2.08,0.93,2.08,2.08v17.12c0,1.15-0.93,2.08-2.08,2.08H19.89c-1.15,0-2.08-0.93-2.08-2.08V81.74 C17.81,80.59,18.74,79.66,19.89,79.66L19.89,79.66z M32.62,83.82H21.97v12.96h10.66V83.82L32.62,83.82z M19.89,48.76H34.7 c1.15,0,2.08,0.93,2.08,2.08v17.12c0,1.15-0.93,2.08-2.08,2.08H19.89c-1.15,0-2.08-0.93-2.08-2.08V50.83 C17.81,49.69,18.74,48.76,19.89,48.76L19.89,48.76z M32.62,52.91H21.97v12.96h10.66V52.91L32.62,52.91z M115.78,37.72v78.99 c0,1.15-0.93,2.08-2.08,2.08H75.71H47.17H9.18c-1.15,0-2.08-0.93-2.08-2.08V37.72H4.61c-0.89,0-1.87-0.32-2.66-0.81 c-0.48-0.3-0.92-0.69-1.25-1.13C0.26,35.19,0,34.51,0,33.79c0-0.55,0.15-1.1,0.48-1.63L18.57,3.35c0.11-0.17,0.22-0.38,0.33-0.58 C19.71,1.32,20.44,0,22.7,0h77.47c2.26,0,2.99,1.32,3.8,2.78v0.01c0.09,0.16,0.18,0.33,0.33,0.57l18.09,28.81 c0.33,0.53,0.48,1.08,0.48,1.63c0,0.73-0.26,1.4-0.7,1.99c-0.29,0.39-0.68,0.75-1.11,1.04l-0.14,0.1c-0.79,0.5-1.77,0.81-2.66,0.81 H115.78L115.78,37.72z"/></g></svg>