<svg xmlns="http://www.w3.org/2000/svg" shape-rendering="geometricPrecision" text-rendering="geometricPrecision" image-rendering="optimizeQuality" fill-rule="evenodd" clip-rule="evenodd" viewBox="0 0 373 511.86"><path fill-rule="nonzero" d="M22.16 0h328.68c6.07 0 11.61 2.5 15.62 6.5 4.04 4.05 6.54 9.59 6.54 15.66v43.73c0 6.04-2.5 11.58-6.51 15.61l-.05.04c-4.01 4.01-9.54 6.5-15.6 6.5h-5.36v43.83c0 6.05-2.5 11.61-6.53 15.63a21.966 21.966 0 0 1-15.63 6.53h-18.09v347.95c0 5.45-4.43 9.88-9.88 9.88H77.65c-5.46 0-9.88-4.43-9.88-9.88V154.03H49.68c-6.07 0-11.61-2.5-15.62-6.51-4.04-4.04-6.54-9.58-6.54-15.65V88.04h-5.36c-6.08 0-11.61-2.49-15.62-6.5C2.5 77.49 0 71.96 0 65.89V22.16c0-6.07 2.5-11.61 6.5-15.62C10.55 2.5 16.08 0 22.16 0zm174.22 440.61c0 5.45-4.42 9.88-9.88 9.88-5.45 0-9.88-4.43-9.88-9.88V206.58c0-5.46 4.43-9.88 9.88-9.88 5.46 0 9.88 4.42 9.88 9.88v234.03zm52.89 0c0 5.45-4.43 9.88-9.88 9.88-5.46 0-9.88-4.43-9.88-9.88V206.58c0-5.46 4.42-9.88 9.88-9.88 5.45 0 9.88 4.42 9.88 9.88v234.03zm-105.78 0c0 5.45-4.43 9.88-9.88 9.88-5.45 0-9.88-4.43-9.88-9.88V206.58c0-5.46 4.43-9.88 9.88-9.88 5.45 0 9.88 4.42 9.88 9.88v234.03zM78.16 134.28h216.68l.51-.01h27.97c.65 0 1.26-.28 1.69-.72.44-.4.71-1.01.71-1.68V87.69H47.28v44.18c0 .66.27 1.28.69 1.71.43.42 1.04.69 1.71.69h27.97l.51.01zm207.31 19.76H87.53V492.1h197.94V154.04zM35.46 68.28c.84-.23 1.72-.35 2.64-.35h294.68c.92 0 1.81.12 2.66.36l.16-.01h15.24c.67 0 1.27-.26 1.69-.67.44-.45.71-1.05.71-1.72V22.16c0-.67-.27-1.28-.69-1.71-.43-.42-1.04-.69-1.71-.69H22.16c-.67 0-1.28.27-1.71.69-.42.43-.69 1.04-.69 1.71v43.73c0 .66.27 1.27.69 1.7.43.42 1.04.69 1.71.69h13.3z"/></svg>