<svg xmlns="http://www.w3.org/2000/svg" shape-rendering="geometricPrecision" text-rendering="geometricPrecision" image-rendering="optimizeQuality" fill-rule="evenodd" clip-rule="evenodd" viewBox="0 0 512 485.41"><path fill-rule="nonzero" d="M31.65 252.74h448.71c-16.77-33.04-37.11-64.41-60.56-93.54-27.66-34.35-59.58-65.59-94.97-92.78l-8.27-6.33c-30.92-23.83-46.41-35.76-58.94-35.79-12.65-.03-28.45 11.8-59.99 35.45l-8.54 6.39c-36.87 27.6-68.74 58.71-95.69 91.84-24.58 30.22-45.14 62.2-61.75 94.76zm149.25 208.3v-64.05c0-19.93 8.15-38.07 21.27-51.19l.7-.65c13.06-12.73 30.9-20.62 50.49-20.62 19.91 0 38.02 8.16 51.14 21.27 13.16 13.12 21.32 31.26 21.32 51.19v64.05h122.57l-23.51-183.89H89.46L62.49 461.04H180.9zm120.56 0v-64.05c0-13.21-5.43-25.25-14.14-33.96-8.69-8.72-20.73-14.14-33.96-14.14-12.97 0-24.79 5.21-33.46 13.6l-.5.54c-8.72 8.71-14.14 20.75-14.14 33.96v64.05h96.2zm147.89-183.89 24.73 193.44c.18.85.29 1.73.29 2.63 0 6.73-5.46 12.19-12.19 12.19H48.4l-1.76-.15c-6.65-.97-11.25-7.15-10.28-13.8l28.51-194.31h-52.7c-1.7-.03-3.45-.38-5.1-1.15-6.09-2.81-8.76-10.06-5.95-16.16 18.7-40.26 43.14-79.98 73.41-117.2 28.28-34.76 61.58-67.3 99.97-95.99l8.54-6.35C218.9 13.4 236.88-.06 257.62 0c20.87.04 38.52 13.65 73.81 40.84l8.22 6.33c37.05 28.5 70.36 61.07 99.11 96.77 28.58 35.52 52.77 74.22 71.74 115.14.96 1.74 1.5 3.74 1.5 5.87 0 6.73-5.47 12.2-12.2 12.2h-50.45z"/></svg>