<svg xmlns="http://www.w3.org/2000/svg" shape-rendering="geometricPrecision" text-rendering="geometricPrecision" image-rendering="optimizeQuality" fill-rule="evenodd" clip-rule="evenodd" viewBox="0 0 512 425"><path fill-rule="nonzero" d="M154.42 416.25h54.14v-93.06h94.88v93.06h54.14V107.53L253.62 33.72l-99.2 70.99v311.54zm211.91 0h115.61V195.72l-115.61-23.03v243.56zm0-266.43 138.47 28.2c5.72 2.13 8.63 8.5 6.5 14.21-2.13 5.72-8.49 8.63-14.21 6.5l-6.39-1.27V425H20.07V197.86l-5.16.87c-5.72 2.13-12.08-.78-14.21-6.5-2.13-5.71.78-12.08 6.5-14.21l138.46-24.37v-42.67l-9.1 6.52c-6.81 4.84-16.27 3.25-21.11-3.56-4.85-6.81-3.25-16.26 3.56-21.11L244.54 3.01c5.12-3.83 12.33-4.11 17.82-.21l125.81 89.32c6.81 4.85 8.4 14.3 3.56 21.11-4.85 6.81-14.3 8.41-21.11 3.56l-4.29-3.04v36.07zm-220.67 26.69L28.82 196.37v219.88h116.84V176.51zm114.36 154.72v85.02h35.38v-85.02h-35.38zm-8.04 85.02v-85.02H216.6v85.02h35.38zm43.42-231.59h-35.38v71.81h35.38v-71.81zm-43.42 0H216.6v71.81h35.38v-71.81zm-35.38-8.04h35.38v-61.8c-9.24.95-17.56 5.12-23.81 11.37-7.14 7.14-11.57 17-11.57 27.83v22.6zm43.42 0h35.38v-22.6c0-10.83-4.43-20.68-11.58-27.83-6.24-6.25-14.57-10.42-23.8-11.37v61.8zM256 106.57c13.05 0 24.91 5.34 33.51 13.94 8.6 8.59 13.93 20.46 13.93 33.51v110.49h-94.88V154.02c0-13.05 5.33-24.92 13.93-33.51 8.59-8.6 20.46-13.94 33.51-13.94zm-142.07 267.3H88.92v23.68h25.01v-23.68zm-30.69 0h-25v23.68h25v-23.68zm-25-5.68h25V344.5h-25v23.69zm30.68 0h25.01V344.5H88.92v23.69zm30.69-26.53v61.58H52.56v-64.42h67.05v2.84zm-5.68-70.89H88.92v34.24h25.01v-34.24zm-30.69 0h-25v34.24h25v-34.24zm-25-5.68h25v-43.67c-6.53.67-12.41 3.62-16.82 8.03-5.04 5.05-8.18 12.02-8.18 19.67v15.97zm30.68 0h25.01v-15.97c0-7.65-3.14-14.61-8.18-19.66-4.42-4.41-10.3-7.37-16.83-8.04v43.67zm-2.84-49.49c9.23 0 17.61 3.77 23.68 9.84 6.08 6.08 9.85 14.46 9.85 23.68v61.57H52.56v-61.57c0-9.22 3.77-17.6 9.85-23.68 6.08-6.07 14.46-9.84 23.67-9.84zm350.62-92.24h33.72v40.98l-33.72-6.86v-34.12zm14.02 250.51h-25v23.68h25v-23.68zm-30.68 0h-25v23.68h25v-23.68zm-25-5.68h25V344.5h-25v23.69zm30.68 0h25V344.5h-25v23.69zm30.68-26.53v61.58h-67.04v-64.42h67.04v2.84zm-5.68-70.89h-25v34.24h25v-34.24zm-30.68 0h-25v34.24h25v-34.24zm-25-5.68h25v-43.67c-6.53.67-12.41 3.62-16.82 8.03-5.05 5.05-8.18 12.02-8.18 19.67v15.97zm30.68 0h25v-15.97c0-7.65-3.13-14.61-8.18-19.66-4.41-4.41-10.29-7.37-16.82-8.04v43.67zm-2.84-49.49c9.22 0 17.6 3.77 23.68 9.84 6.07 6.08 9.84 14.46 9.84 23.68v61.57h-67.04v-61.57c0-9.22 3.77-17.6 9.84-23.68 6.09-6.07 14.47-9.84 23.68-9.84z"/></svg>