<?xml version="1.0" encoding="utf-8"?><svg version="1.1" id="Layer_1" xmlns="http://www.w3.org/2000/svg" xmlns:xlink="http://www.w3.org/1999/xlink" x="0px" y="0px" viewBox="0 0 122.88 109.69" style="enable-background:new 0 0 122.88 109.69" xml:space="preserve"><g><path d="M6.7,109.69c-3.7,0-6.7-3-6.7-6.7c0-3.7,3-6.7,6.7-6.7h16.87V78.25H3.45c-3.37,0.31-4.05-2.35-2.61-4.56L13.7,58.62 l-0.37-0.37H6.45c-2.49,0.37-3.42-2.33-1.91-4.23l13.85-16.26h-4.04c-2.53,0.07-3.16-2.26-1.53-4.46l12.61-14.98 c0.86-1.02,1.78-2.52,3.28-2.49c1.29,0.03,2.07,1.25,2.83,2.15l7.22,8.42L31.43,35c-0.18,0.18-0.35,0.37-0.51,0.57 c-1.29,1.62-2,3.51-2.17,5.38c-0.17,1.78,0.16,3.55,0.94,5.09c0.69,1.36,1.7,2.53,3.02,3.4l-5.48,6.42l0,0 c-0.19,0.22-0.37,0.46-0.53,0.71c-1.37,2.11-1.99,4.54-1.78,6.81c0.12,1.32,0.5,2.57,1.14,3.71c0.69,1.21,1.66,2.26,2.9,3.08 c1.59,1.03,3.56,1.63,5.88,1.56c0.07,0,0.14,0,0.21,0h14.2v6.53H33.71v18.04H56V64.98H35.06c-3.51,0.32-4.22-2.45-2.72-4.75 l13.38-15.69l-0.39-0.39h-7.16c-2.59,0.38-3.56-2.43-1.98-4.4L50.6,22.83h-4.21c-2.64,0.07-3.29-2.36-1.6-4.64L57.93,2.59 c0.9-1.06,1.86-2.63,3.42-2.59c1.34,0.03,2.15,1.3,2.95,2.23l13.96,16.28c1.51,2.18,0.22,4.46-2.42,4.46h-3.77l14.31,16.77 c1.72,1.7,0.84,4.42-1.13,4.79h-8.32L89.4,59.18l1.37,1.6c1.04,1.19,0.52,3.93-1.73,4.19H66.55v31.31h21.81V78.25H73.3v-6.53h15.74 v-0.01c0.26,0,0.52-0.02,0.79-0.05c1.99-0.24,3.65-1.05,4.98-2.22c1.29-1.13,2.18-2.53,2.69-3.99c0.48-1.38,0.63-2.87,0.46-4.28 c-0.19-1.55-0.77-3.08-1.75-4.37c-0.1-0.14-0.21-0.27-0.32-0.41l-1.37-1.6l-4.43-5.19c0.43-0.31,0.84-0.66,1.21-1.03 c1.09-1.1,1.89-2.47,2.33-3.94c0.43-1.43,0.52-2.99,0.23-4.54c-0.33-1.72-1.12-3.41-2.47-4.85l-7.77-9.11l6.6-7.83 c0.86-1.02,1.78-2.52,3.28-2.49c1.29,0.03,2.07,1.25,2.83,2.15l13.41,15.64c1.46,2.09,0.21,4.28-2.32,4.28h-3.62l13.75,16.11 c1.65,1.63,0.81,4.25-1.09,4.6h-7.99l11.99,14.06l1.31,1.54c1,1.15,0.5,3.77-1.66,4.03H98.5v18.04h17.68c3.7,0,6.7,3,6.7,6.7 c0,3.7-3,6.7-6.7,6.7H6.7L6.7,109.69z"/></g></svg>