<svg xmlns="http://www.w3.org/2000/svg" shape-rendering="geometricPrecision" text-rendering="geometricPrecision" image-rendering="optimizeQuality" fill-rule="evenodd" clip-rule="evenodd" viewBox="0 0 512 377.03"><path fill-rule="nonzero" d="M149.64 254.32V61.39c0-16.89 6.9-32.24 18.03-43.36C178.79 6.91 194.14 0 211.03 0c7.88 0 15.49 1.55 22.54 4.36 7.3 2.9 13.89 7.13 19.46 12.37 4.19 3.95 4.39 10.55.45 14.75-3.95 4.19-10.55 4.39-14.75.45-3.73-3.51-8.08-6.32-12.83-8.21-4.53-1.81-9.55-2.8-14.86-2.8-11.13 0-21.25 4.56-28.59 11.89-7.33 7.34-11.89 17.46-11.89 28.58v43.36h133.15V61.39c0-16.86 6.91-32.2 18.03-43.32C332.86 6.91 348.22 0 365.1 0c8.1 0 15.86 1.6 22.98 4.5 7.36 2.99 14.04 7.4 19.69 12.88 4.13 4.01 4.22 10.62.21 14.75-4.01 4.13-10.62 4.22-14.75.2-3.7-3.58-8.11-6.49-12.99-8.47a40.14 40.14 0 0 0-15.13-2.94c-11.13 0-21.25 4.56-28.59 11.89-7.34 7.32-11.89 17.45-11.89 28.58v195.99c6.06 7.58 12.13 12.96 18.02 16.2 4.73 2.61 9.27 3.77 13.48 3.54 4.12-.23 8.2-1.83 12.1-4.73 4.81-3.58 9.39-9.15 13.54-16.62a10.39 10.39 0 0 1 5.06-4.76c5.28-2.32 11.45.08 13.77 5.35 3.66 8.29 8.93 13.82 14.84 16.86l.46.22c3.86 1.89 8.03 2.81 12.2 2.81 4.26 0 8.64-.96 12.81-2.79 7.49-3.31 14.17-9.45 18.37-17.99 2.52-5.17 8.76-7.3 13.93-4.78 5.16 2.52 7.3 8.76 4.77 13.93-6.5 13.23-16.91 22.77-28.66 27.95-6.72 2.97-13.96 4.51-21.22 4.51-7.35 0-14.66-1.61-21.42-4.94l-.59-.31c-5.65-2.87-10.89-6.93-15.42-12.24-3.16 3.75-6.52 6.93-10.03 9.55-7.23 5.38-15.1 8.35-23.37 8.81-8.15.45-16.46-1.55-24.67-6.07-5.83-3.21-11.65-7.74-17.34-13.62-4.92 6.11-10.78 10.81-17.16 14.02-6.36 3.2-13.26 4.93-20.29 5.07-6.99.15-14.05-1.25-20.77-4.28-7.85-3.55-15.27-9.32-21.58-17.41-5.82 6.09-11.78 10.77-17.76 14.07-8.21 4.53-16.52 6.53-24.68 6.08-8.27-.46-16.14-3.43-23.38-8.81-3.51-2.62-6.87-5.8-10.03-9.54-4.69 5.49-10.15 9.65-16.04 12.54-6.77 3.33-14.07 4.93-21.39 4.94-7.26 0-14.5-1.55-21.23-4.51-6.96-3.07-13.45-7.67-18.94-13.67-2.84 3.45-5.99 6.49-9.47 9.11-7.95 5.96-17.39 9.48-28.59 10.09-5.75.31-10.67-4.09-10.98-9.84-.31-5.75 4.09-10.67 9.84-10.98 6.91-.38 12.59-2.45 17.23-5.93 4.86-3.65 8.89-9.05 12.21-15.88 2.53-5.19 8.79-7.35 13.98-4.82 2.42 1.18 4.18 3.18 5.11 5.49 4.22 8.19 10.74 14.1 18.03 17.31 4.17 1.84 8.54 2.8 12.81 2.8 4.2 0 8.38-.92 12.23-2.81 6.07-2.98 11.49-8.54 15.23-16.98zm154.07 3.45v-40.35H170.56v39.69c3.59 5.75 7.46 10.14 11.5 13.14 3.9 2.91 7.98 4.5 12.1 4.73 4.22.24 8.76-.93 13.49-3.54 6.64-3.67 13.5-10.04 20.32-19.21 2.11-2.84 5.38-4.3 8.67-4.21 3.9-.1 7.71 2.01 9.58 5.73 5.21 10.33 12.1 16.99 19.4 20.29 3.89 1.75 7.9 2.57 11.78 2.49 3.86-.08 7.71-1.06 11.3-2.87 5.97-3.01 11.28-8.36 15.01-15.89zM10.96 374.97c-5.75.29-10.65-4.13-10.95-9.88-.29-5.75 4.14-10.65 9.89-10.95 6.87-.36 12.54-2.43 17.19-5.91 4.89-3.67 8.91-9.06 12.21-15.84 2.5-5.19 8.74-7.36 13.93-4.86a10.35 10.35 0 0 1 5.05 5.29c4.21 8.3 10.78 14.27 18.13 17.51 4.17 1.84 8.55 2.8 12.82 2.8 4.2 0 8.38-.92 12.24-2.81 6.08-2.99 11.52-8.58 15.26-17.07 2.33-5.27 8.49-7.67 13.77-5.35 2.26 1 4 2.71 5.06 4.75 4.15 7.47 8.72 13.03 13.54 16.61 3.9 2.91 7.98 4.51 12.1 4.74 4.22.23 8.76-.94 13.49-3.55 6.64-3.66 13.5-10.03 20.33-19.2 3.42-4.62 9.96-5.59 14.58-2.16 1.48 1.09 2.59 2.52 3.29 4.09 2.83 6.21 6.67 11.06 11.08 14.44 4.08 3.12 8.69 5.01 13.42 5.58 4.73.56 9.64-.17 14.33-2.29 4.98-2.25 9.78-6.07 13.97-11.54 3.17-4.15 8.85-5.26 13.29-2.83 1.8.72 3.42 1.95 4.63 3.64 4.41 6.19 9.57 10.44 14.95 12.87 4.48 2.02 9.15 2.79 13.65 2.38l.2-.02c4.58-.47 9.07-2.18 13.08-5.04 4.75-3.39 8.89-8.45 11.88-15.06.72-1.56 1.83-2.99 3.31-4.08 4.62-3.43 11.16-2.46 14.58 2.16 6.83 9.17 13.7 15.54 20.34 19.21 4.73 2.6 9.26 3.77 13.49 3.54 4.11-.24 8.19-1.83 12.09-4.74 4.82-3.58 9.39-9.14 13.54-16.61 1.06-2.04 2.79-3.75 5.06-4.75 5.28-2.32 11.44.08 13.77 5.35 3.73 8.47 9.18 14.05 15.29 17.06 3.85 1.9 8.02 2.82 12.22 2.82 4.26 0 8.64-.96 12.82-2.81 7.49-3.3 14.16-9.44 18.35-17.97 2.53-5.16 8.77-7.3 13.93-4.78 5.17 2.53 7.3 8.77 4.78 13.93-6.5 13.22-16.91 22.76-28.64 27.94-6.73 2.97-13.98 4.52-21.24 4.52-7.34-.01-14.64-1.62-21.41-4.94-5.91-2.89-11.35-7.05-16.03-12.53-3.16 3.73-6.51 6.91-10.02 9.52-7.23 5.38-15.1 8.35-23.37 8.81-8.16.46-16.47-1.54-24.68-6.07-5.83-3.21-11.64-7.74-17.33-13.61-3.19 3.95-6.78 7.32-10.64 10.08-7 4.98-14.9 7.96-23.05 8.8l-.31.02c-8.08.78-16.37-.55-24.23-4.1-5.64-2.54-11.05-6.23-15.99-11.11-4.31 3.83-8.93 6.82-13.71 8.98-8.25 3.72-16.93 5.01-25.35 4-8.41-1.02-16.53-4.32-23.63-9.75a54.477 54.477 0 0 1-9.25-9.05c-5.69 5.86-11.49 10.38-17.32 13.6-8.21 4.53-16.52 6.53-24.68 6.07-8.27-.46-16.14-3.42-23.38-8.81-3.51-2.61-6.86-5.8-10.02-9.53-4.69 5.49-10.15 9.65-16.04 12.54-6.77 3.33-14.07 4.94-21.39 4.94-7.27 0-14.51-1.55-21.24-4.51-6.96-3.07-13.45-7.68-18.94-13.68-2.84 3.46-5.99 6.51-9.46 9.12-7.96 5.96-17.41 9.48-28.63 10.08zM303.71 196.5v-70.83H170.56v70.83h133.15z"/></svg>