<?xml version="1.0" encoding="utf-8"?><svg version="1.1" id="Layer_1" xmlns="http://www.w3.org/2000/svg" xmlns:xlink="http://www.w3.org/1999/xlink" x="0px" y="0px" viewBox="0 0 122.88 117.36" style="enable-background:new 0 0 122.88 117.36" xml:space="preserve"><g><path d="M7.91,53.54L7.91,53.54l50.68-36.06V2.07c0-1.15,0.93-2.07,2.07-2.07c1.13,0,2.06,0.91,2.07,2.04h17.35v13.78H62.73v1.64 l52.21,36.07l0,0h0l0.03,0.02l0.01,0.01l0.02,0.01l0.03,0.02l0,0l0.04,0.03l0.02,0.01l0.06,0.04l0.01,0.01l0.04,0.03l0,0l0.03,0.02 l0.01,0.01l0.02,0.01l0.02,0.02l0,0l0.03,0.02l0.01,0.01l0.02,0.01l0.02,0.02l0,0l0.02,0.02l0.01,0.01l0.02,0.02l0.02,0.02l0,0 l0.02,0.02l0.01,0.01l0.03,0.04l0,0.01l0.02,0.03l0.01,0.01l0.02,0.02l0.02,0.02l0,0.01l0.02,0.03l0.01,0.01l0.01,0.02l0.01,0.02 l0,0.01l0.02,0.03l0,0.01l0.01,0.02l0.01,0.02l0.01,0.01l0.02,0.03l0,0.01l0.01,0.02l0.01,0.02l0,0.01l0.02,0.03l0,0.01l0.01,0.02 l0.01,0.02l0,0.01l0.02,0.03l0,0.01l0.01,0.03l0.01,0.02l0,0.01l0.01,0.03l0,0.01l0.01,0.03l0.01,0.02l0,0.01l0.01,0.03l0,0 l0.02,0.05l0,0.01l0.01,0.03l0,0l0.01,0.03l0.01,0.02l0,0.01l0.01,0.03l0,0l0.01,0.03l0,0.02l0,0.01l0.01,0.03l0,0l0.01,0.03 l0,0.02l0,0.01l0.01,0.04l0,0l0,0.03l0,0.02l0,0.02l0,0.04v0l0,0.03l0,0.02l0,0.02l0,0.04l0,0l0,0.04l0,0.02l0,0.02l0,0.04v57.83 h5.51c1.45,0,1.38,0.94,1.38,2.09c0,1.16,0.07,2.1-1.38,2.1H1.38c-1.45,0-1.38-0.94-1.38-2.1c0-1.16-0.07-2.09,1.38-2.09h5.51 V55.34l0-0.04l0-0.02l0-0.02l0-0.04v0l0-0.03l0-0.02l0-0.02l0-0.03l0,0l0-0.03l0-0.02l0-0.01l0.01-0.03l0,0l0.01-0.05l0-0.01 l0.01-0.03l0,0l0.01-0.03l0.01-0.02l0-0.01l0.01-0.03l0-0.01l0.01-0.03l0.01-0.02l0-0.01l0.01-0.03l0-0.01l0.01-0.03L7,54.67 l0-0.01l0.01-0.03l0-0.01l0.01-0.02l0.01-0.02l0-0.01l0.01-0.03l0-0.01l0.01-0.02l0.01-0.02l0-0.01l0.01-0.03l0-0.01l0.01-0.02 l0.01-0.02l0-0.01l0.02-0.03l0.01-0.01l0.02-0.04l0,0l0.02-0.03l0.01-0.01l0.01-0.02l0.02-0.03l0,0l0.02-0.03l0.01-0.01l0.01-0.02 l0.02-0.02l0,0L7.3,54.1l0.01-0.01l0.03-0.04l0,0l0.02-0.03l0.01-0.01l0.01-0.01l0.02-0.02l0,0l0.02-0.02l0.01-0.01l0.01-0.01 l0.02-0.02l0,0l0.04-0.04l0.01-0.01l0.02-0.02l0,0l0.02-0.02l0.02-0.02l0.02-0.02l0,0l0.04-0.03l0.01-0.01l0.03-0.02l0,0l0.04-0.03 l0.01-0.01l0.03-0.02l0,0l0.02-0.02l0.02-0.01l0.01-0.01l0.03-0.02l0.01,0l0.02-0.01L7.91,53.54L7.91,53.54L7.91,53.54z M74.87,113.17c-5.02-7.46-8.44-16.02-10.91-25.16c-1.06-3.93-1.95-7.98-2.71-12.08c-0.66,5.86-1.59,11.23-2.82,16.11 c-2.15,8.52-5.21,15.57-9.31,21.13H74.87L74.87,113.17z M111.8,57.43H62.74l0.03,0.21l0.03,0.26l0.03,0.25l0.03,0.22l0.04,0.29 l0.02,0.19l0.04,0.32l0.02,0.15l0.05,0.36l0.01,0.11l0.05,0.39l0.01,0.08l0.06,0.43l0.01,0.04l0.06,0.47l0,0l0.06,0.47l0,0.03 l0.06,0.44l0.01,0.07l0.05,0.4l0.01,0.1l0.05,0.37l0.02,0.14l0.04,0.33l0.02,0.18l0.04,0.29l0.03,0.21l0.04,0.26l0.03,0.25 l0.03,0.22l0.04,0.28l0.03,0.18l0.05,0.32l0.02,0.15l0.05,0.36l0.02,0.11l0.06,0.39l0.01,0.08l0.06,0.43l0.01,0.04l0.07,0.46l0,0 l0.07,0.47l0,0.03l0.07,0.43l0.01,0.07l0.06,0.4l0.02,0.1l0.06,0.36l0.02,0.14l0.05,0.33l0.03,0.18l0.05,0.29l0.03,0.21l0.04,0.25 l0.04,0.25l0.04,0.22l0.05,0.28l0.03,0.18l0.05,0.32l0.02,0.15l0.06,0.35l0.02,0.11l0.07,0.39l0.01,0.07l0.08,0.42l0.01,0.04 l0.08,0.46l0,0l0.08,0.46l0.01,0.03l0.08,0.43l0.01,0.07l0.07,0.39l0.02,0.1l0.07,0.36l0.03,0.14l0.06,0.32l0.03,0.17l0.06,0.28 l0.04,0.21l0.05,0.25l0.05,0.24l0.04,0.21l0.06,0.28l0.09,0.46l0.01,0.03l0.03,0.14l0.07,0.35l0.02,0.11l0.08,0.38l0.02,0.07 l0.09,0.42l0.01,0.04l0.1,0.45v0l0.1,0.45l0.01,0.03l0.09,0.42l0.02,0.07l0.09,0.38l0.02,0.1l0.08,0.35l0.03,0.14l0.07,0.31 l0.04,0.17l0.07,0.28l0.05,0.21l0.06,0.24l0.06,0.24l0.05,0.21l0.01,0.04l0.1,0.4l0.08,0.31l0.03,0.14l0.02,0.09l0.09,0.36 l0.1,0.37l0.02,0.07l0.11,0.41l0.01,0.03L68,86.93c2.6,9.62,6.28,18.53,11.83,26.03h31.97V57.43L111.8,57.43z M58.26,57.43H11.08 v55.52h32.86c4.69-5.36,8.1-12.69,10.43-21.93l0.11-0.44l0.01-0.02l0.1-0.42l0.01-0.04l0.1-0.4l0.02-0.07l0.09-0.38l0.02-0.09 l0.08-0.36l0.03-0.11l0.02-0.11l0.08-0.36l0-0.01l0.07-0.32l0.03-0.16l0.06-0.3l0.04-0.19l0.06-0.28l0.04-0.21l0.01-0.07l0.09-0.42 l0.07-0.38l0.02-0.11l0.04-0.21l0-0.02l0.08-0.4l0.03-0.14l0.07-0.35l0.01-0.03l0.06-0.34l0.03-0.14l0.06-0.36l0.02-0.12l0.02-0.13 l0.06-0.36l0.07-0.41l0.01-0.07l0.07-0.44l0.01-0.05l0.08-0.47l0-0.02l0.08-0.49l0,0l0.08-0.49l0-0.03l0.07-0.47l0.01-0.05 l0.06-0.45l0.01-0.08l0.06-0.43l0.01-0.1l0.05-0.4l0.02-0.13l0.05-0.38l0-0.03c0.04-0.31,0.08-0.62,0.12-0.93l0.01-0.12l0.05-0.45 l0-0.02l0.03-0.24l0.03-0.28l0.03-0.27l0.03-0.26l0.03-0.29l0.03-0.23l0.04-0.32l0.02-0.21l0-0.01l0.06-0.53l0.04-0.38l0.02-0.16 l0-0.04l0.05-0.49l0.04-0.44l0.01-0.1c0.03-0.36,0.07-0.72,0.1-1.09l0.05-0.53l0-0.02l0.05-0.55l0-0.01l0.04-0.55l0-0.03l0.04-0.52 l0-0.06l0.04-0.5c0.05-0.75,0.11-1.5,0.15-2.26l0.01-0.21l0.02-0.37l0.06-1.15l0-0.01l0.02-0.3L58.02,64l0.06-1.15l0-0.04 l0.05-1.16l0.02-0.45l0.01-0.14l0.02-0.49l0-0.11l0.02-0.52l0-0.08l0.02-0.55l0-0.05l0.02-0.58l0-0.02L58.26,57.43L58.26,57.43z"/></g></svg>