<?xml version="1.0" ?><svg id="Icons" style="enable-background:new 0 0 32 32;" version="1.1" viewBox="0 0 32 32" xml:space="preserve" xmlns="http://www.w3.org/2000/svg" xmlns:xlink="http://www.w3.org/1999/xlink"><style type="text/css">
	.st0{fill:none;stroke:#000000;stroke-width:2;stroke-linecap:round;stroke-linejoin:round;stroke-miterlimit:10;}
</style><path class="st0" d="M24.1,11.9c0,1.2-3.6,2.3-8.1,2.3s-8.1-1-8.1-2.3v0C7.9,7.5,11.6,4,16,4h0C20.4,4,24.1,7.5,24.1,11.9L24.1,11.9  z"/><path class="st0" d="M23.7,9.5c4.4,1.2,7.3,3.3,7.3,5.8C31,19,24.3,22,16,22S1,19,1,15.3c0-2.5,2.9-4.6,7.3-5.8"/><line class="st0" x1="20" x2="24" y1="22" y2="29"/><line class="st0" x1="8" x2="12" y1="29" y2="22"/><line class="st0" x1="14" x2="18" y1="18" y2="18"/></svg>