<svg xmlns="http://www.w3.org/2000/svg" shape-rendering="geometricPrecision" text-rendering="geometricPrecision" image-rendering="optimizeQuality" fill-rule="evenodd" clip-rule="evenodd" viewBox="0 0 459 511.48"><path d="M153.34 236.22h-.15v43.82h.15c1.42 0 2.71-.58 3.64-1.52.94-.92 1.52-2.21 1.52-3.64v-33.5c0-1.34-.52-2.57-1.36-3.49l-.16-.15a5.149 5.149 0 0 0-3.64-1.52zm275.22 124.89h-7.99l-.05-231.99h8.04v231.99zm-7.99 44.88h7.99v70.9c0 1.54 1.21 2.9 2.58 2.9h.58v4.4H27.28v-4.4h.58c1.37 0 2.57-1.36 2.57-2.9v-70.9h8l-.01 67.89 114.77-35.14V288.02h.15c3.62 0 6.91-1.48 9.28-3.87 2.38-2.38 3.86-5.67 3.86-9.27v-33.5c0-3.48-1.38-6.66-3.62-9.02l-.24-.26a13.074 13.074 0 0 0-9.28-3.86l-.15.01V77.66L46.16 38.58l-7.66-2.8-.01 48.46h-8.06V34.59c0-1.55-1.15-2.91-2.57-2.91h-.58v-4.4h404.44v4.4h-.58c-1.42 0-2.58 1.36-2.58 2.91v49.65h-8.05l-.01-48.46-110.9 40.5-3.79 1.38v150.59l-.15-.01c-3.62 0-6.91 1.48-9.29 3.86l-.23.26c-2.24 2.36-3.62 5.54-3.62 9.02v33.5c0 3.6 1.48 6.89 3.85 9.28 2.38 2.38 5.67 3.86 9.29 3.86h.15v150.72l114.77 35.14-.01-67.89zM409.08 52.12l-41.39 15.12v123.65l41.41-4.04-.02-134.73zm-103.27 184.1h-.15c-1.42 0-2.71.59-3.65 1.52l-.16.15c-.84.92-1.35 2.15-1.35 3.49v33.5c0 1.43.57 2.72 1.5 3.64a5.19 5.19 0 0 0 3.66 1.52h.15v-43.82zm50.41-164.8-38.94 14.23V195.8l38.94-3.8V71.42zm11.47 128.53v111.52l41.44 6.97-.02-122.53-41.42 4.04zm0 120.68v125.12l41.46 12.69-.02-130.85-41.44-6.96zm-11.47 121.61V318.7l-38.94-6.55v118.16l38.94 11.93zm0-132.69V201.07l-38.94 3.79V303l38.94 6.55zM459 0v511.48H0V0h459zM30.43 129.12v231.99h8l.05-231.99h-8.05zm111.29-43.47-38.94-14.23v119.37l38.94 3.81V85.65zM91.31 67.24 49.92 52.12l-.02 133.51 41.41 4.04V67.24zM49.9 197.12l-.03 120.09 41.44-6.96V201.16l-41.41-4.04zm-.03 131.7-.02 129.62 41.46-12.69v-123.9l-41.44 6.97zm52.91 113.42 38.94-11.93V313.37l-38.94 6.55v122.32zm38.94-140.47v-95.69l-38.94-3.8v106.04l38.94-6.55z"/></svg>